<?xml version="1.0" encoding="UTF-8" standalone="no"?><svg xmlns="http://www.w3.org/2000/svg" xmlns:xlink="http://www.w3.org/1999/xlink" contentScriptType="application/ecmascript" contentStyleType="text/css" height="581px" preserveAspectRatio="none" style="width:718px;height:581px;" version="1.1" viewBox="0 0 718 581" width="718px" zoomAndPan="magnify"><defs><filter height="300%" id="f1o2hgz335bkbb" width="300%" x="-1" y="-1"><feGaussianBlur result="blurOut" stdDeviation="2.0"/><feColorMatrix in="blurOut" result="blurOut2" type="matrix" values="0 0 0 0 0 0 0 0 0 0 0 0 0 0 0 0 0 0 .4 0"/><feOffset dx="4.0" dy="4.0" in="blurOut2" result="blurOut3"/><feBlend in="SourceGraphic" in2="blurOut3" mode="normal"/></filter></defs><g><!--MD5=[442e44915df002a574554e0f9d88b7d6]
cluster Sistema de Gestão de Bancas--><rect fill="#FFFFFF" filter="url(#f1o2hgz335bkbb)" height="546" style="stroke: #000000; stroke-width: 1.5;" width="529" x="178" y="24"/><text fill="#000000" font-family="sans-serif" font-size="14" font-weight="bold" lengthAdjust="spacingAndGlyphs" textLength="234" x="325.5" y="38.9951">Sistema de Gestão de Bancas</text><ellipse cx="283.4234" cy="83.0853" fill="#FEFECE" filter="url(#f1o2hgz335bkbb)" rx="81.9234" ry="24.0853" style="stroke: #A80036; stroke-width: 1.5;"/><text fill="#000000" font-family="sans-serif" font-size="14" lengthAdjust="spacingAndGlyphs" textLength="122" x="222.4234" y="82.503">Formalizar Pedido</text><text fill="#000000" font-family="sans-serif" font-size="14" lengthAdjust="spacingAndGlyphs" textLength="65" x="250.9234" y="98.7999">de Banca</text><ellipse cx="593.5053" cy="89.8339" fill="#FEFECE" filter="url(#f1o2hgz335bkbb)" rx="97.5053" ry="30.8339" style="stroke: #A80036; stroke-width: 1.5;"/><text fill="#000000" font-family="sans-serif" font-size="14" lengthAdjust="spacingAndGlyphs" textLength="115" x="536.0053" y="80.5416">Enviar Email para</text><text fill="#000000" font-family="sans-serif" font-size="14" lengthAdjust="spacingAndGlyphs" textLength="166" x="510.5053" y="96.8385">Coordenador/Secretário</text><text fill="#000000" font-family="sans-serif" font-size="14" lengthAdjust="spacingAndGlyphs" textLength="51" x="568.0053" y="113.1354">do PPG</text><ellipse cx="283.6107" cy="157.8221" fill="#FEFECE" filter="url(#f1o2hgz335bkbb)" rx="67.1107" ry="15.8221" style="stroke: #A80036; stroke-width: 1.5;"/><text fill="#000000" font-family="sans-serif" font-size="14" lengthAdjust="spacingAndGlyphs" textLength="99" x="234.1107" y="162.4706">Aprovar Banca</text><ellipse cx="593.5624" cy="256.0125" fill="#FEFECE" filter="url(#f1o2hgz335bkbb)" rx="80.5624" ry="18.5125" style="stroke: #A80036; stroke-width: 1.5;"/><text fill="#000000" font-family="sans-serif" font-size="14" lengthAdjust="spacingAndGlyphs" textLength="132" x="527.5624" y="260.6609">Gerar Documentos</text><ellipse cx="283.7037" cy="232.9333" fill="#FEFECE" filter="url(#f1o2hgz335bkbb)" rx="89.7037" ry="23.9333" style="stroke: #A80036; stroke-width: 1.5;"/><text fill="#000000" font-family="sans-serif" font-size="14" lengthAdjust="spacingAndGlyphs" textLength="135" x="216.2037" y="232.5919">Enviar Documentos</text><text fill="#000000" font-family="sans-serif" font-size="14" lengthAdjust="spacingAndGlyphs" textLength="64" x="251.7037" y="248.8887">da Banca</text><ellipse cx="283.4711" cy="309.0942" fill="#FEFECE" filter="url(#f1o2hgz335bkbb)" rx="73.4711" ry="17.0942" style="stroke: #A80036; stroke-width: 1.5;"/><text fill="#000000" font-family="sans-serif" font-size="14" lengthAdjust="spacingAndGlyphs" textLength="115" x="225.9711" y="313.7427">Enviar Atestados</text><ellipse cx="283.2711" cy="378.7542" fill="#FEFECE" filter="url(#f1o2hgz335bkbb)" rx="76.7711" ry="17.7542" style="stroke: #A80036; stroke-width: 1.5;"/><text fill="#000000" font-family="sans-serif" font-size="14" lengthAdjust="spacingAndGlyphs" textLength="123" x="221.7711" y="383.4027">Pesquisar Bancas</text><ellipse cx="283.4883" cy="451.0977" fill="#FEFECE" filter="url(#f1o2hgz335bkbb)" rx="80.9883" ry="18.5977" style="stroke: #A80036; stroke-width: 1.5;"/><text fill="#000000" font-family="sans-serif" font-size="14" lengthAdjust="spacingAndGlyphs" textLength="133" x="216.9883" y="455.7461">Editar Documentos</text><ellipse cx="283.4511" cy="529.161" fill="#FEFECE" filter="url(#f1o2hgz335bkbb)" rx="71.4511" ry="24.661" style="stroke: #A80036; stroke-width: 1.5;"/><text fill="#000000" font-family="sans-serif" font-size="14" lengthAdjust="spacingAndGlyphs" textLength="103" x="231.9511" y="527.6887">Gerar Relatório</text><text fill="#000000" font-family="sans-serif" font-size="14" lengthAdjust="spacingAndGlyphs" textLength="73" x="246.9511" y="543.9855">de Bancas</text><ellipse cx="593.5624" cy="175.0125" fill="#FEFECE" filter="url(#f1o2hgz335bkbb)" rx="80.5624" ry="18.5125" style="stroke: #A80036; stroke-width: 1.5;"/><text fill="#000000" font-family="sans-serif" font-size="14" lengthAdjust="spacingAndGlyphs" textLength="132" x="527.5624" y="179.6609">Notificar Orientador</text><!--MD5=[755ddbdbf903c123b75067a26f22a58d]
entity orientador--><ellipse cx="68.5" cy="32" fill="#FEFECE" filter="url(#f1o2hgz335bkbb)" rx="8" ry="8" style="stroke: #A80036; stroke-width: 1.5;"/><path d="M68.5,40 L68.5,67 M55.5,48 L81.5,48 M68.5,67 L55.5,82 M68.5,67 L81.5,82 " fill="none" filter="url(#f1o2hgz335bkbb)" style="stroke: #A80036; stroke-width: 1.5;"/><text fill="#000000" font-family="sans-serif" font-size="14" lengthAdjust="spacingAndGlyphs" textLength="73" x="32" y="100.4951">Orientador</text><!--MD5=[66024bc34cfdc23995ae5e268c786020]
entity coordenador--><ellipse cx="68.5" cy="148" fill="#FEFECE" filter="url(#f1o2hgz335bkbb)" rx="8" ry="8" style="stroke: #A80036; stroke-width: 1.5;"/><path d="M68.5,156 L68.5,183 M55.5,164 L81.5,164 M68.5,183 L55.5,198 M68.5,183 L81.5,198 " fill="none" filter="url(#f1o2hgz335bkbb)" style="stroke: #A80036; stroke-width: 1.5;"/><text fill="#000000" font-family="sans-serif" font-size="14" lengthAdjust="spacingAndGlyphs" textLength="91" x="23" y="216.4951">Coordenador</text><!--MD5=[684eaf0e8bc372a06ceb71783f1d3192]
entity secretario--><ellipse cx="68.5" cy="420" fill="#FEFECE" filter="url(#f1o2hgz335bkbb)" rx="8" ry="8" style="stroke: #A80036; stroke-width: 1.5;"/><path d="M68.5,428 L68.5,455 M55.5,436 L81.5,436 M68.5,455 L55.5,470 M68.5,455 L81.5,470 " fill="none" filter="url(#f1o2hgz335bkbb)" style="stroke: #A80036; stroke-width: 1.5;"/><text fill="#000000" font-family="sans-serif" font-size="14" lengthAdjust="spacingAndGlyphs" textLength="125" x="6" y="488.4951">Secretário do PPG</text><!--MD5=[a6ea25572a9afa951c5c63efae0e4d23]
link orientador to UC1--><path d="M105.15,66.35 C132.39,68.91 170.95,72.53 205.15,75.74 " fill="none" id="orientador-UC1" style="stroke: #A80036; stroke-width: 1.0;"/><!--MD5=[ef0b5bf3aacec69c759dc0a66ee92357]
link secretario to UC7--><path d="M131.04,428.58 C143.88,424.01 157.36,419.28 170,415 C191.75,407.63 216,399.81 236.41,393.36 " fill="none" id="secretario-UC7" style="stroke: #A80036; stroke-width: 1.0;"/><!--MD5=[0f8b213a78bd0aa032236095be285da8]
link secretario to UC8--><path d="M131.11,451 C153.35,451 178.78,451 202.37,451 " fill="none" id="secretario-UC8" style="stroke: #A80036; stroke-width: 1.0;"/><!--MD5=[7875c07d5cb062628b1c8de4f9fb613d]
link coordenador to UC3--><path d="M114.15,174.6 C145.26,171.53 187.14,167.4 221.35,164.03 " fill="none" id="coordenador-UC3" style="stroke: #A80036; stroke-width: 1.0;"/><!--MD5=[f21286947374c4542aec612ffc27c8fe]
link secretario to UC9--><path d="M131.11,473.56 C163.79,485.53 203.38,500.03 233.87,511.19 " fill="none" id="secretario-UC9" style="stroke: #A80036; stroke-width: 1.0;"/><!--MD5=[1aa3f81a3bd80cff712043234baebedb]
link UC1 to UC2--><path d="M365.42,84.84 C403.8,85.71 450.06,86.76 490.79,87.69 " fill="none" id="UC1-&gt;UC2" style="stroke: #A80036; stroke-width: 1.0; stroke-dasharray: 7.0,7.0;"/><polygon fill="#A80036" points="496.24,87.81,487.3338,83.6054,491.2413,87.6957,487.1509,91.6033,496.24,87.81" style="stroke: #A80036; stroke-width: 1.0;"/><text fill="#000000" font-family="sans-serif" font-size="13" lengthAdjust="spacingAndGlyphs" textLength="61" x="404" y="82.0669">«include»</text><!--MD5=[b5ebc4358cc1fbddf3d18c1f4c43196d]
link UC3 to UC10--><path d="M349.07,161.56 C395.79,164.14 459.33,167.65 509.78,170.43 " fill="none" id="UC3-&gt;UC10" style="stroke: #A80036; stroke-width: 1.0; stroke-dasharray: 7.0,7.0;"/><polygon fill="#A80036" points="514.93,170.72,506.1608,166.2367,509.9374,170.4482,505.7259,174.2248,514.93,170.72" style="stroke: #A80036; stroke-width: 1.0;"/><text fill="#000000" font-family="sans-serif" font-size="13" lengthAdjust="spacingAndGlyphs" textLength="61" x="404" y="161.0669">«include»</text><!--MD5=[d4a5aae1b0e654ff863e0f2caddd3bea]
reverse link UC3 to UC4--><path d="M329.56,172.34 C387.31,190.71 486.93,222.41 545.57,241.07 " fill="none" id="UC3&lt;-UC4" style="stroke: #A80036; stroke-width: 1.0; stroke-dasharray: 7.0,7.0;"/><polygon fill="#A80036" points="324.45,170.71,331.8006,177.2651,329.2116,172.2354,334.2413,169.6465,324.45,170.71" style="stroke: #A80036; stroke-width: 1.0;"/><text fill="#000000" font-family="sans-serif" font-size="13" lengthAdjust="spacingAndGlyphs" textLength="60" x="404.5" y="195.0669">«extend»</text><!--MD5=[42d0fdfc7272d0e640e7206aad1439fa]
link UC5 to UC4--><path d="M359.24,245.79 C373.72,247.86 388.8,249.74 403,251 C432.03,253.58 463.64,254.97 492.58,255.69 " fill="none" id="UC5-&gt;UC4" style="stroke: #A80036; stroke-width: 1.0;"/><polygon fill="none" points="492.76,248.69,512.62,256.09,492.48,262.69,492.76,248.69" style="stroke: #A80036; stroke-width: 1.0;"/><!--MD5=[aa51ccb7921928330ad442e765fe1063]
link UC6 to UC4--><path d="M343.16,298.91 C390.03,290.84 456.32,279.43 508.77,270.41 " fill="none" id="UC6-&gt;UC4" style="stroke: #A80036; stroke-width: 1.0;"/><polygon fill="none" points="507.59,263.51,528.48,267.02,509.96,277.31,507.59,263.51" style="stroke: #A80036; stroke-width: 1.0;"/><!--MD5=[8fe9f14c9430ff4f936253bc0ef93575]
@startuml
left to right direction
skinparam packageStyle rectangle

actor "Orientador" as orientador
actor "Coordenador" as coordenador
actor "Secretário do PPG" as secretario

rectangle "Sistema de Gestão de Bancas" {
  usecase "Formalizar Pedido\nde Banca" as UC1
  usecase "Enviar Email para\nCoordenador/Secretário\ndo PPG" as UC2
  usecase "Aprovar Banca" as UC3
  usecase "Gerar Documentos" as UC4
  usecase "Enviar Documentos\nda Banca" as UC5
  usecase "Enviar Atestados" as UC6
  usecase "Pesquisar Bancas" as UC7
  usecase "Editar Documentos" as UC8
  usecase "Gerar Relatório\nde Bancas" as UC9
  usecase "Notificar Orientador" as UC10
}

orientador - - UC1
secretario - - UC7
secretario - - UC8
coordenador - - UC3
secretario - - UC9

UC1 ..> UC2 : <<include>>
UC3 ..> UC10 : <<include>>
UC3 <.. UC4 : <<extend>>

UC5 - -|> UC4
UC6 - -|> UC4
@enduml

PlantUML version 1.2020.02(Sun Mar 01 07:22:07 BRT 2020)
(GPL source distribution)
Java Runtime: OpenJDK Runtime Environment
JVM: OpenJDK 64-Bit Server VM
Java Version: 11.0.30+7-post-Ubuntu-1ubuntu122.04
Operating System: Linux
Default Encoding: UTF-8
Language: pt
Country: BR
--></g></svg>